<svg xmlns="http://www.w3.org/2000/svg" xmlns:xlink="http://www.w3.org/1999/xlink" width="500" zoomAndPan="magnify" viewBox="0 0 375 374.999991" height="500" preserveAspectRatio="xMidYMid meet" version="1.0"><defs><g/></defs><path fill="#cb082c" d="M 355.796875 180.28125 L 368.902344 191.273438 L 363.175781 199.089844 L 366.515625 205.363281 L 237.917969 205.632812 C 237.917969 205.632812 237.511719 195.023438 237.800781 193.316406 C 238.09375 191.609375 229.195312 181.761719 229.195312 181.761719 Z M 355.796875 180.28125 " fill-opacity="1" fill-rule="nonzero"/><g fill="#ffffff" fill-opacity="1"><g transform="translate(269.025719, 197.882857)"><g><path d="M 1.96875 -4.515625 C 1.96875 -3.066406 2.207031 -2.015625 2.6875 -1.359375 C 3.175781 -0.710938 3.941406 -0.390625 4.984375 -0.390625 C 6.003906 -0.390625 6.757812 -0.710938 7.25 -1.359375 C 7.738281 -2.015625 7.984375 -3.066406 7.984375 -4.515625 C 7.984375 -5.953125 7.738281 -6.988281 7.25 -7.625 C 6.769531 -8.257812 6.015625 -8.578125 4.984375 -8.578125 C 3.941406 -8.578125 3.175781 -8.257812 2.6875 -7.625 C 2.207031 -6.988281 1.96875 -5.953125 1.96875 -4.515625 Z M 0.5625 -4.515625 C 0.5625 -7.578125 2.035156 -9.109375 4.984375 -9.109375 C 6.429688 -9.109375 7.523438 -8.71875 8.265625 -7.9375 C 9.015625 -7.164062 9.390625 -6.023438 9.390625 -4.515625 C 9.390625 -2.984375 9.015625 -1.820312 8.265625 -1.03125 C 7.515625 -0.25 6.421875 0.140625 4.984375 0.140625 C 3.546875 0.140625 2.445312 -0.25 1.6875 -1.03125 C 0.9375 -1.820312 0.5625 -2.984375 0.5625 -4.515625 Z M 0.5625 -4.515625 "/></g></g></g><g fill="#ffffff" fill-opacity="1"><g transform="translate(279.733162, 197.882857)"><g><path d="M 0.390625 0 L 0.390625 -0.359375 L 1.5625 -0.53125 L 1.5625 -8.484375 L 0.390625 -8.65625 L 0.390625 -9.015625 L 4.015625 -9.015625 L 4.015625 -8.65625 L 2.859375 -8.484375 L 2.859375 -4.9375 L 7.109375 -4.9375 L 7.109375 -8.484375 L 5.953125 -8.65625 L 5.953125 -9.015625 L 9.5625 -9.015625 L 9.5625 -8.65625 L 8.40625 -8.484375 L 8.40625 -0.53125 L 9.5625 -0.359375 L 9.5625 0 L 5.953125 0 L 5.953125 -0.359375 L 7.109375 -0.53125 L 7.109375 -4.328125 L 2.859375 -4.328125 L 2.859375 -0.53125 L 4.015625 -0.359375 L 4.015625 0 Z M 0.390625 0 "/></g></g></g><g fill="#ffffff" fill-opacity="1"><g transform="translate(289.865945, 197.882857)"><g><path d="M 1.203125 0.140625 C 0.785156 0.140625 0.441406 0.03125 0.171875 -0.1875 L 0.125 -1.640625 L 0.4375 -1.640625 L 0.75 -1.046875 C 0.875 -0.878906 1.050781 -0.796875 1.28125 -0.796875 C 1.6875 -0.796875 2.019531 -1.25 2.28125 -2.15625 C 2.550781 -3.0625 2.769531 -4.476562 2.9375 -6.40625 L 3.109375 -8.484375 L 1.953125 -8.65625 L 1.953125 -9.015625 L 8.953125 -9.015625 L 8.953125 -8.65625 L 7.796875 -8.484375 L 7.796875 -0.53125 L 8.953125 -0.359375 L 8.953125 0 L 5.34375 0 L 5.34375 -0.359375 L 6.5 -0.53125 L 6.5 -8.40625 L 3.796875 -8.40625 L 3.625 -6.3125 C 3.46875 -4.625 3.289062 -3.332031 3.09375 -2.4375 C 2.894531 -1.550781 2.644531 -0.898438 2.34375 -0.484375 C 2.039062 -0.0664062 1.660156 0.140625 1.203125 0.140625 Z M 1.203125 0.140625 "/></g></g></g><g fill="#ffffff" fill-opacity="1"><g transform="translate(299.576528, 197.882857)"><g><path d="M 3.109375 -0.359375 L 3.109375 0 L 0.140625 0 L 0.140625 -0.359375 L 1.15625 -0.53125 L 4.234375 -9.09375 L 5.515625 -9.09375 L 8.71875 -0.53125 L 9.859375 -0.359375 L 9.859375 0 L 6.046875 0 L 6.046875 -0.359375 L 7.25 -0.53125 L 6.359375 -3.140625 L 2.796875 -3.140625 L 1.890625 -0.53125 Z M 4.546875 -8.125 L 3 -3.75 L 6.15625 -3.75 Z M 4.546875 -8.125 "/></g></g></g><g fill="#ffffff" fill-opacity="1"><g transform="translate(309.287112, 197.882857)"><g><path d="M 0.390625 0 L 0.390625 -0.359375 L 1.5625 -0.53125 L 1.5625 -8.484375 L 0.390625 -8.65625 L 0.390625 -9.015625 L 4.015625 -9.015625 L 4.015625 -8.65625 L 2.859375 -8.484375 L 2.859375 -1.96875 L 7.109375 -8.21875 L 7.109375 -8.484375 L 5.953125 -8.65625 L 5.953125 -9.015625 L 9.5625 -9.015625 L 9.5625 -8.65625 L 8.40625 -8.484375 L 8.40625 -0.53125 L 9.5625 -0.359375 L 9.5625 0 L 5.953125 0 L 5.953125 -0.359375 L 7.109375 -0.53125 L 7.109375 -7.140625 L 2.859375 -0.890625 L 2.859375 -0.53125 L 4.015625 -0.359375 L 4.015625 0 Z M 5 -9.796875 C 4.175781 -9.796875 3.5625 -9.941406 3.15625 -10.234375 C 2.757812 -10.523438 2.546875 -11.003906 2.515625 -11.671875 L 3.625 -11.671875 C 3.65625 -11.210938 3.785156 -10.863281 4.015625 -10.625 C 4.242188 -10.382812 4.570312 -10.265625 5 -10.265625 C 5.414062 -10.265625 5.738281 -10.382812 5.96875 -10.625 C 6.207031 -10.863281 6.335938 -11.210938 6.359375 -11.671875 L 7.46875 -11.671875 C 7.445312 -11.003906 7.234375 -10.523438 6.828125 -10.234375 C 6.421875 -9.941406 5.8125 -9.796875 5 -9.796875 Z M 5 -9.796875 "/></g></g></g><g fill="#ffffff" fill-opacity="1"><g transform="translate(319.572355, 197.882857)"><g><path d="M 0.390625 0 L 0.390625 -0.359375 L 1.5625 -0.53125 L 1.5625 -8.484375 L 0.390625 -8.65625 L 0.390625 -9.015625 L 4.015625 -9.015625 L 4.015625 -8.65625 L 2.859375 -8.484375 L 2.859375 -4.9375 L 7.109375 -4.9375 L 7.109375 -8.484375 L 5.953125 -8.65625 L 5.953125 -9.015625 L 9.5625 -9.015625 L 9.5625 -8.65625 L 8.40625 -8.484375 L 8.40625 -0.53125 L 9.5625 -0.359375 L 9.5625 0 L 5.953125 0 L 5.953125 -0.359375 L 7.109375 -0.53125 L 7.109375 -4.328125 L 2.859375 -4.328125 L 2.859375 -0.53125 L 4.015625 -0.359375 L 4.015625 0 Z M 0.390625 0 "/></g></g></g><path fill="#000000" d="M 223.371094 178.453125 C 223.234375 178.359375 223.097656 178.269531 222.960938 178.175781 C 221.84375 179.183594 220.695312 180.160156 219.625 181.214844 C 219.378906 181.457031 219.195312 182.175781 219.335938 182.3125 C 219.695312 182.652344 220.300781 183.019531 220.71875 182.9375 C 221.222656 182.835938 221.820312 182.371094 222.050781 181.902344 C 222.59375 180.804688 222.945312 179.609375 223.371094 178.453125 M 219.160156 186.386719 C 217.785156 185.65625 216.609375 184.734375 216.042969 183.222656 C 215.570312 181.960938 215.519531 180.695312 216.582031 179.738281 C 218.257812 178.230469 219.929688 176.683594 221.796875 175.4375 C 223.0625 174.59375 223.78125 173.675781 223.835938 172.203125 C 223.851562 171.695312 223.914062 171.1875 223.960938 170.554688 C 223.46875 170.746094 223.058594 170.882812 222.667969 171.066406 C 221.523438 171.605469 220.644531 171.207031 219.957031 170.28125 C 218.492188 168.316406 218.359375 166.207031 219.421875 164.039062 C 219.726562 163.417969 220.066406 162.589844 221.042969 162.90625 C 221.820312 163.160156 222.273438 164.398438 222.027344 165.265625 C 221.78125 166.128906 221.566406 167.003906 221.3125 167.96875 C 223.40625 167.578125 224.015625 166.917969 224.09375 165.179688 C 224.097656 165.070312 224.089844 164.957031 224.101562 164.847656 C 224.25 163.570312 225.042969 162.699219 226 162.761719 C 226.996094 162.832031 227.769531 163.871094 227.570312 165.175781 C 227.363281 166.542969 226.90625 167.871094 226.648438 169.234375 C 226.457031 170.242188 226.40625 171.277344 226.265625 172.546875 C 226.90625 172.132812 227.390625 171.832031 227.855469 171.511719 C 232.039062 168.625 236.210938 165.730469 240.398438 162.847656 C 242.632812 161.308594 242.484375 161.660156 243.667969 163.804688 C 244.09375 164.570312 244.316406 165.445312 244.667969 166.257812 C 245.511719 168.210938 246.109375 168.410156 247.914062 167.199219 C 249.296875 166.269531 250.597656 165.21875 251.933594 164.21875 C 252.554688 163.75 253.183594 163.292969 253.78125 162.796875 C 254.429688 162.257812 254.855469 162.507812 255.199219 163.132812 C 255.71875 164.078125 255.933594 165.042969 255.484375 166.089844 C 254.8125 167.644531 254.152344 169.203125 253.507812 170.769531 C 253.273438 171.335938 253.085938 171.921875 252.789062 172.75 C 253.386719 172.605469 253.796875 172.597656 254.109375 172.421875 C 257.773438 170.363281 261.277344 168.089844 264.152344 164.980469 C 264.351562 164.765625 264.582031 164.574219 264.816406 164.390625 C 266.074219 163.398438 266.511719 163.625 267.023438 165.125 C 267.898438 167.699219 268.929688 170.222656 270.121094 172.78125 C 270.492188 171.214844 270.984375 169.671875 271.207031 168.085938 C 271.628906 165.097656 273.28125 163.328125 276.109375 162.269531 C 281.3125 160.320312 286.722656 159.222656 292.136719 158.109375 C 292.492188 158.039062 293.234375 158.273438 293.265625 158.460938 C 293.410156 159.222656 293.570312 160.113281 293.296875 160.785156 C 292.9375 161.683594 292.273438 162.511719 291.570312 163.207031 C 290.558594 164.207031 290.480469 165.207031 291.261719 166.492188 C 293.429688 166.097656 295.679688 165.691406 297.933594 165.277344 C 298.550781 165.164062 299.164062 165.007812 299.789062 164.90625 C 300.675781 164.757812 301.339844 164.539062 301.738281 163.503906 C 301.980469 162.871094 302.988281 162.191406 303.691406 162.144531 C 304.898438 162.0625 306.253906 162.214844 307.335938 162.71875 C 309.210938 163.585938 309.304688 165.34375 307.714844 166.691406 C 308.363281 167.480469 308.984375 168.300781 309.691406 169.042969 C 309.867188 169.226562 310.371094 169.304688 310.621094 169.195312 C 313.234375 168.054688 315.835938 166.882812 318.417969 165.667969 C 318.691406 165.542969 318.878906 165.136719 319.007812 164.820312 C 319.289062 164.132812 319.765625 163.542969 320.488281 163.839844 C 320.9375 164.023438 321.4375 164.75 321.4375 165.230469 C 321.429688 166.65625 321.203125 168.085938 321.03125 169.507812 C 320.78125 171.554688 320.5 173.597656 320.238281 175.640625 C 320.160156 176.277344 319.992188 176.828125 319.191406 176.808594 C 318.359375 176.78125 317.824219 176.289062 317.769531 175.519531 C 317.691406 174.425781 317.726562 173.316406 317.820312 172.21875 C 317.925781 170.988281 318.148438 169.765625 318.328125 168.476562 C 316.066406 169.628906 313.878906 170.714844 311.726562 171.871094 C 311.488281 171.996094 311.300781 172.507812 311.34375 172.808594 C 311.707031 175.402344 310.648438 176.765625 308.027344 176.679688 C 306.1875 176.617188 304.332031 176.347656 302.542969 175.933594 C 301.890625 175.78125 301.011719 174.976562 300.949219 174.394531 C 300.886719 173.820312 301.59375 172.929688 302.203125 172.570312 C 303.5625 171.773438 305.070312 171.222656 306.695312 170.492188 C 305.429688 169.589844 304.234375 168.726562 303.019531 167.894531 C 302.859375 167.78125 302.589844 167.75 302.386719 167.785156 C 298.988281 168.363281 295.589844 168.957031 292.09375 169.5625 C 292.484375 171.039062 292.90625 172.433594 293.195312 173.855469 C 293.292969 174.34375 293.230469 175.21875 292.949219 175.367188 C 292.1875 175.765625 291.5625 175.355469 291.214844 174.53125 C 290.660156 173.207031 290.070312 171.894531 289.453125 170.597656 C 289.335938 170.355469 288.996094 170.011719 288.808594 170.039062 C 287.246094 170.269531 285.523438 170.0625 284.5625 171.863281 C 284.070312 172.785156 283.222656 173.53125 282.496094 174.320312 C 282.011719 174.84375 281.300781 175.222656 280.75 174.648438 C 280.371094 174.253906 280.136719 173.4375 280.269531 172.917969 C 280.484375 172.09375 281.058594 171.359375 281.511719 170.527344 C 280.425781 170.347656 280.324219 169.585938 280.421875 168.710938 C 280.519531 167.804688 281.246094 167.667969 281.902344 167.714844 C 283.445312 167.824219 284.210938 166.945312 284.882812 165.765625 C 285.578125 164.554688 286.382812 163.40625 287.289062 162 C 283.519531 163.039062 279.914062 163.699219 276.621094 165.367188 C 275.289062 166.039062 274.445312 167.09375 274.085938 168.550781 C 273.453125 171.085938 272.808594 173.617188 272.097656 176.128906 C 271.960938 176.621094 271.589844 177.230469 271.160156 177.417969 C 270.421875 177.738281 269.675781 177.394531 269.261719 176.671875 C 268.476562 175.296875 267.746094 173.890625 266.980469 172.5 C 266.738281 172.050781 266.46875 171.617188 265.894531 171.15625 C 265.582031 172.816406 265.210938 174.46875 264.984375 176.140625 C 264.824219 177.300781 264.804688 177.394531 263.632812 177.097656 C 262.210938 176.742188 261.816406 176.273438 262.085938 174.8125 C 262.429688 172.972656 262.917969 171.160156 263.363281 169.246094 C 261.703125 170.742188 260.15625 172.234375 258.496094 173.597656 C 256.71875 175.054688 254.824219 176.375 252.441406 176.710938 C 250.753906 176.953125 249.480469 175.988281 249.59375 174.328125 C 249.703125 172.742188 250.121094 171.171875 250.40625 169.566406 C 249.792969 169.875 249.09375 170.246094 248.375 170.578125 C 245.617188 171.839844 244.71875 171.652344 242.640625 169.300781 C 242.382812 170.09375 242.148438 170.796875 241.925781 171.503906 C 241.421875 173.117188 240.917969 174.734375 240.421875 176.351562 C 240.203125 177.070312 240.195312 178.003906 239.066406 177.878906 C 238.203125 177.78125 237.363281 176.539062 237.523438 175.601562 C 237.644531 174.878906 237.863281 174.171875 238.070312 173.464844 C 238.617188 171.609375 239.183594 169.757812 239.804688 167.699219 C 239.382812 167.921875 239.132812 168.035156 238.902344 168.175781 C 234.976562 170.574219 231.058594 172.976562 227.128906 175.367188 C 226.554688 175.71875 226.242188 176.097656 226.226562 176.847656 C 226.199219 178.425781 226.0625 180.007812 225.863281 181.574219 C 225.601562 183.648438 224.625 185.320312 222.738281 186.386719 Z M 219.160156 186.386719 " fill-opacity="1" fill-rule="nonzero"/><path fill="#000000" d="M 365.765625 160.707031 C 365.566406 162.101562 365.257812 163.492188 365.1875 164.890625 C 364.980469 169.050781 364.851562 173.210938 364.722656 177.375 C 364.667969 179.1875 364.28125 179.707031 362.816406 179.6875 C 361.195312 179.664062 360.570312 178.96875 360.660156 177.167969 C 360.867188 173.007812 361.109375 168.851562 361.332031 164.695312 C 361.347656 164.441406 361.335938 164.183594 361.335938 163.722656 C 360.519531 164.351562 359.828125 164.925781 359.097656 165.445312 C 357.074219 166.886719 355.082031 168.375 352.996094 169.71875 C 351.246094 170.839844 350.296875 170.605469 348.996094 168.960938 C 348.535156 168.386719 348.140625 167.753906 347.742188 167.132812 C 347.367188 166.546875 347.027344 165.941406 346.34375 165.3125 C 346.035156 166.78125 345.632812 168.238281 345.441406 169.722656 C 345.21875 171.472656 345.1875 173.246094 345.042969 175.007812 C 344.941406 176.234375 344.25 176.859375 343.109375 176.8125 C 341.90625 176.761719 341.324219 176.199219 341.429688 174.847656 C 341.621094 172.359375 341.941406 169.882812 342.207031 167.398438 C 342.238281 167.117188 342.285156 166.835938 342.371094 166.242188 C 341.367188 167.464844 340.613281 168.503906 339.730469 169.425781 C 338.609375 170.601562 337.425781 171.722656 336.195312 172.785156 C 335.675781 173.230469 335 173.539062 334.347656 173.773438 C 332.582031 174.398438 331.273438 173.640625 330.851562 171.824219 C 330.800781 171.609375 330.738281 171.398438 330.652344 171.070312 C 329.921875 171.859375 329.277344 172.59375 328.589844 173.277344 C 328.226562 173.640625 327.816406 173.992188 327.363281 174.21875 C 325.726562 175.046875 324.246094 174.179688 324.460938 172.414062 C 324.660156 170.785156 325.144531 169.183594 325.5625 167.585938 C 325.8125 166.628906 326.167969 165.695312 326.492188 164.757812 C 326.894531 163.578125 327.304688 163.335938 328.355469 163.625 C 329.582031 163.960938 329.980469 164.578125 329.667969 165.730469 C 329.332031 166.964844 328.964844 168.1875 328.839844 169.5625 C 329.441406 168.859375 330.0625 168.171875 330.636719 167.449219 C 331.1875 166.753906 331.714844 166.039062 332.207031 165.300781 C 332.703125 164.554688 333.320312 164.167969 334.164062 164.65625 C 334.976562 165.121094 335.371094 165.828125 335.03125 166.800781 C 334.738281 167.632812 334.453125 168.46875 334.195312 169.3125 C 334.089844 169.644531 334.070312 170.003906 333.957031 170.6875 C 334.703125 170.210938 335.238281 169.964844 335.652344 169.585938 C 337.921875 167.511719 340.175781 165.421875 342.390625 163.289062 C 342.714844 162.976562 342.914062 162.414062 342.949219 161.949219 C 343.109375 159.785156 345.289062 158.53125 347.132812 159.710938 C 347.941406 160.230469 348.59375 161.058594 349.152344 161.863281 C 349.714844 162.671875 350.070312 163.621094 350.511719 164.511719 C 350.933594 165.363281 351.34375 166.21875 351.804688 167.164062 C 355.464844 164.398438 359.152344 161.777344 362.175781 158.390625 C 363.101562 157.355469 364.222656 157.21875 365.765625 158.050781 Z M 365.765625 160.707031 " fill-opacity="1" fill-rule="nonzero"/><path fill="#000000" d="M 126.664062 174.789062 C 128.570312 174.023438 130.253906 173.351562 131.941406 172.671875 C 131.910156 172.617188 131.878906 172.5625 131.847656 172.503906 L 126.664062 172.503906 Z M 104.941406 168.5625 C 107.144531 167.839844 109.191406 167.167969 111.234375 166.496094 C 111.242188 166.363281 111.246094 166.234375 111.253906 166.101562 C 109.164062 165.5 107.074219 164.902344 104.941406 164.289062 Z M 90.386719 170.832031 C 88.839844 171.113281 87.582031 171.480469 86.308594 171.539062 C 84.746094 171.609375 83.984375 172.367188 83.691406 173.78125 C 83.625 174.101562 83.453125 174.433594 83.492188 174.738281 C 83.5625 175.277344 83.597656 176.0625 83.9375 176.265625 C 84.3125 176.492188 85.117188 176.339844 85.5625 176.074219 C 87.601562 174.851562 89 173.015625 90.386719 170.832031 M 91.488281 167.867188 C 91.359375 165.332031 90.382812 164.117188 88.652344 164.097656 C 86.847656 164.078125 83.910156 166.144531 83.363281 167.828125 C 83.144531 168.507812 83.320312 169 84.089844 169.136719 C 84.488281 169.210938 84.917969 169.328125 85.296875 169.25 C 87.382812 168.816406 89.457031 168.328125 91.488281 167.867188 M 137.347656 164.683594 L 137.296875 164.496094 C 136.6875 164.453125 136.078125 164.394531 135.46875 164.363281 C 133.097656 164.246094 130.726562 164.105469 128.355469 164.058594 C 127.964844 164.050781 127.25 164.425781 127.21875 164.683594 C 127.039062 166.132812 127.023438 167.601562 126.933594 169.394531 C 127.714844 169.191406 128.363281 169.089844 128.957031 168.851562 C 129.710938 168.550781 130.414062 168.136719 131.144531 167.773438 C 133.210938 166.742188 135.277344 165.714844 137.347656 164.683594 M 70.0625 164.402344 C 68.097656 162.296875 61.59375 161.355469 59.421875 162.648438 C 60.171875 164.242188 60.917969 165.816406 61.65625 167.382812 C 64.210938 166.226562 67.421875 166.222656 70.0625 164.402344 M 46.375 170.011719 C 44.484375 171.28125 42.75 172.554688 40.902344 173.636719 C 40.078125 174.117188 39.042969 174.324219 38.078125 174.46875 C 37.164062 174.605469 36.523438 174.074219 36.597656 173.117188 C 36.683594 171.992188 36.898438 170.875 37.125 169.769531 C 37.230469 169.242188 37.488281 168.75 37.773438 167.980469 C 35.773438 169.273438 34.015625 170.464844 32.207031 171.574219 C 27.148438 174.675781 22.097656 177.785156 16.984375 180.792969 C 15.792969 181.492188 14.378906 181.816406 13.054688 182.273438 C 12.75 182.378906 12.386719 182.367188 12.058594 182.335938 C 10.085938 182.140625 7.875 178.492188 8.71875 176.734375 C 10.09375 173.859375 12.214844 171.523438 14.527344 169.371094 C 15.316406 168.632812 15.195312 168.203125 14.449219 167.652344 C 14.121094 167.410156 13.828125 167.117188 13.527344 166.84375 C 12.832031 166.21875 12.625 165.445312 13.140625 164.660156 C 15.722656 160.738281 19.117188 157.832031 23.792969 156.667969 C 24.265625 156.546875 24.980469 156.90625 25.417969 157.246094 C 25.828125 157.566406 26.0625 158.140625 26.28125 158.640625 C 26.929688 160.089844 26.910156 160.09375 25.328125 160.21875 C 25.109375 160.238281 24.882812 160.289062 24.683594 160.375 C 21.917969 161.589844 19.566406 163.335938 17.722656 165.820312 C 18.839844 165.417969 19.949219 165 21.074219 164.621094 C 22.128906 164.269531 23.183594 163.910156 24.261719 163.652344 C 25.460938 163.367188 25.863281 163.644531 26.257812 164.816406 C 27.0625 167.199219 27.0625 167.203125 24.6875 167.980469 C 20.601562 169.316406 17.644531 172.136719 14.925781 175.265625 C 14.34375 175.933594 13.816406 176.644531 13.351562 177.515625 C 13.800781 177.355469 14.257812 177.207031 14.707031 177.03125 C 20.398438 174.808594 25.621094 171.691406 30.878906 168.644531 C 33.671875 167.027344 36.421875 165.339844 39.171875 163.65625 C 39.699219 163.335938 40.179688 162.910156 40.621094 162.476562 C 41.472656 161.644531 42.523438 161.496094 43.613281 161.644531 C 43.816406 161.675781 44.144531 162.351562 44.054688 162.597656 C 43.679688 163.628906 43.191406 164.625 42.691406 165.609375 C 42.074219 166.824219 41.398438 168.011719 40.761719 169.222656 C 40.546875 169.628906 40.375 170.058594 40.183594 170.480469 L 40.390625 170.699219 C 40.75 170.515625 41.164062 170.394531 41.464844 170.144531 C 43.007812 168.871094 44.511719 167.550781 46.050781 166.277344 C 46.46875 165.929688 46.925781 165.523438 47.425781 165.410156 C 49.007812 165.046875 49.945312 165.820312 49.917969 167.441406 C 49.898438 168.46875 49.714844 169.492188 49.621094 170.515625 C 49.558594 171.195312 49.527344 171.875 49.480469 172.554688 C 49.589844 172.613281 49.699219 172.671875 49.808594 172.730469 C 50.746094 171.722656 51.695312 170.726562 52.617188 169.703125 C 53.78125 168.410156 54.941406 167.117188 56.0625 165.785156 C 56.296875 165.507812 56.429688 165.085938 56.46875 164.71875 C 56.597656 163.546875 56.59375 162.359375 56.78125 161.199219 C 56.851562 160.792969 57.269531 160.199219 57.628906 160.113281 C 61.703125 159.152344 65.800781 158.773438 69.761719 160.519531 C 71.589844 161.328125 73.097656 162.5 73.410156 164.746094 C 73.527344 165.609375 73.207031 166.082031 72.636719 166.367188 C 71.117188 167.125 69.558594 167.816406 67.972656 168.425781 C 66.871094 168.84375 65.695312 169.078125 64.425781 169.433594 C 64.644531 169.707031 64.777344 169.972656 64.992188 170.128906 C 68.175781 172.417969 71.28125 174.839844 74.597656 176.929688 C 77.1875 178.5625 78.496094 178.601562 80.238281 175.078125 C 80.800781 173.9375 81.082031 172.664062 81.492188 171.453125 C 79.460938 169.371094 79.386719 167.605469 81.3125 165.371094 C 82.921875 163.5 84.914062 162.179688 87.34375 161.601562 C 90.707031 160.800781 93.453125 162.507812 94.21875 165.835938 C 94.269531 166.050781 94.3125 166.261719 94.394531 166.652344 C 95.089844 166.402344 95.722656 166.171875 96.359375 165.941406 C 97.753906 165.4375 99.160156 164.957031 100.539062 164.414062 C 100.859375 164.285156 101.257812 163.976562 101.335938 163.679688 C 101.691406 162.339844 102.523438 161.460938 103.875 161.554688 C 107.484375 161.796875 110.886719 162.769531 113.925781 164.777344 C 114.691406 165.28125 115.179688 166.003906 114.800781 166.941406 C 114.625 167.382812 114.234375 167.765625 113.867188 168.097656 C 113.582031 168.359375 113.183594 168.5 112.832031 168.695312 L 112.949219 169.082031 C 116.3125 168.289062 119.683594 167.511719 123.035156 166.675781 C 123.316406 166.605469 123.617188 166.152344 123.691406 165.832031 C 123.851562 165.117188 123.886719 164.375 123.957031 163.640625 C 124.09375 162.1875 124.835938 161.386719 126.3125 161.40625 C 129.546875 161.449219 132.78125 161.566406 136.015625 161.699219 C 137.648438 161.765625 139.28125 161.894531 140.90625 162.0625 C 141.679688 162.144531 142.699219 162.039062 142.894531 163.089844 C 143.09375 164.175781 142.359375 164.800781 141.417969 165.15625 C 139.652344 165.820312 137.851562 166.402344 136.105469 167.113281 C 134.464844 167.777344 132.875 168.566406 131.261719 169.300781 C 131.277344 169.410156 131.289062 169.515625 131.300781 169.625 C 132.554688 169.679688 133.804688 169.757812 135.058594 169.777344 C 136.757812 169.804688 136.6875 169.796875 136.984375 171.433594 C 137.128906 172.230469 136.710938 172.425781 136.175781 172.613281 C 134.929688 173.058594 133.675781 173.472656 132.488281 174.144531 C 135.589844 173.789062 138.691406 173.453125 141.785156 173.054688 C 142.105469 173.011719 142.445312 172.632812 142.65625 172.324219 C 143.976562 170.367188 145.226562 168.359375 146.582031 166.425781 C 147.308594 165.394531 148.214844 164.613281 149.609375 164.363281 C 150.761719 164.152344 151.363281 164.550781 151.65625 165.492188 C 152.058594 166.789062 152.332031 168.125 152.703125 169.632812 C 154.417969 169.445312 156.214844 169.253906 158.007812 169.058594 C 158.378906 169.015625 158.742188 168.933594 159.109375 168.902344 C 160.476562 168.785156 161.683594 168.519531 162.300781 167.03125 C 162.839844 165.734375 164.175781 165.847656 165.289062 165.84375 C 166.328125 165.84375 166.796875 166.695312 167.121094 167.546875 C 167.429688 168.351562 167.65625 169.191406 167.964844 170.171875 C 168.644531 169.15625 169.230469 168.1875 169.90625 167.289062 C 171.597656 165.054688 173.273438 162.800781 175.078125 160.65625 C 175.941406 159.636719 176.664062 159.703125 177.476562 160.425781 C 178.058594 160.941406 178.195312 161.527344 177.792969 162.199219 C 177.589844 162.542969 177.363281 162.894531 177.085938 163.183594 C 173.71875 166.746094 171.28125 170.914062 169.058594 175.21875 C 168.640625 176.027344 168.183594 176.652344 167.144531 176.597656 C 166.101562 176.542969 165.808594 175.757812 165.558594 174.992188 C 165.257812 174.0625 165.054688 173.101562 164.789062 172.070312 C 164.167969 173.269531 163.636719 174.402344 163.007812 175.476562 C 162.660156 176.074219 162.253906 176.765625 161.683594 177.066406 C 161.117188 177.371094 160.234375 177.445312 159.644531 177.222656 C 159.285156 177.085938 158.980469 176.160156 159.0625 175.652344 C 159.296875 174.179688 159.734375 172.734375 160.113281 171.195312 C 157.769531 171.515625 155.433594 171.832031 152.972656 172.164062 C 153.042969 172.914062 153.113281 173.597656 153.167969 174.28125 C 153.304688 175.851562 152.578125 176.460938 151.082031 175.886719 C 149.773438 175.378906 148.535156 174.6875 147.265625 174.078125 C 147.003906 173.953125 146.742188 173.828125 146.460938 173.695312 C 145.8125 174.785156 145.253906 175.871094 144.550781 176.855469 C 144.210938 177.324219 143.640625 177.804688 143.09375 177.925781 C 141.625 178.246094 141.003906 177.597656 140.902344 175.707031 C 139.328125 175.886719 137.761719 176.074219 136.195312 176.253906 C 133.167969 176.59375 130.136719 176.921875 127.113281 177.285156 C 126.394531 177.371094 125.691406 177.671875 124.972656 177.71875 C 123.441406 177.820312 122.996094 177.425781 123.011719 175.914062 C 123.027344 174.148438 123.148438 172.382812 123.226562 170.617188 C 123.246094 170.179688 123.277344 169.746094 123.304688 169.265625 C 117.277344 170.46875 111.386719 173.042969 105.273438 170.042969 C 105.273438 171.550781 105.265625 173.148438 105.277344 174.746094 C 105.28125 175.445312 105.300781 176.144531 105.363281 176.839844 C 105.4375 177.679688 105.082031 178.214844 104.261719 178.359375 C 103.441406 178.5 102.519531 178.589844 102.152344 177.621094 C 101.804688 176.703125 101.464844 175.722656 101.429688 174.757812 C 101.328125 172.1875 101.394531 169.609375 101.394531 166.8125 C 100.542969 167.054688 99.992188 167.191406 99.457031 167.371094 C 98.648438 167.640625 97.863281 167.988281 97.042969 168.210938 C 95.324219 168.675781 94.230469 169.515625 93.578125 171.363281 C 92.558594 174.265625 90.472656 176.539062 87.832031 178.222656 C 85.875 179.476562 83.828125 179.964844 81.667969 178.605469 C 81.4375 178.902344 81.25 179.175781 81.03125 179.425781 C 79.472656 181.207031 77.789062 181.664062 75.539062 180.84375 C 72.457031 179.71875 69.894531 177.742188 67.34375 175.773438 C 65.261719 174.167969 63.261719 172.464844 61.109375 170.710938 C 60.898438 172.253906 60.6875 173.761719 60.488281 175.269531 C 60.355469 176.253906 60.289062 177.25 60.105469 178.226562 C 59.917969 179.246094 59.074219 179.625 57.648438 179.496094 C 56.632812 179.402344 56.375 178.847656 56.386719 177.929688 C 56.421875 175.355469 56.398438 172.777344 56.175781 170.070312 C 55.742188 170.570312 55.324219 171.09375 54.867188 171.570312 C 53.589844 172.90625 52.300781 174.226562 51 175.539062 C 50.765625 175.773438 50.476562 175.957031 50.183594 176.117188 C 49.210938 176.652344 48.160156 177.019531 47.117188 176.429688 C 46.039062 175.824219 45.933594 174.714844 46.023438 173.613281 C 46.113281 172.441406 46.25 171.273438 46.375 170.011719 " fill-opacity="1" fill-rule="nonzero"/><path fill="#000000" d="M 208.222656 159.757812 C 205.152344 161.234375 202.71875 163.433594 200.574219 165.957031 C 198.082031 168.890625 196.027344 172.066406 195.359375 175.933594 C 195.21875 176.757812 195.203125 177.625 195.273438 178.464844 C 195.363281 179.613281 196.050781 180.039062 197.125 179.558594 C 198.335938 179.015625 199.585938 178.445312 200.621094 177.640625 C 203.660156 175.277344 206.597656 172.785156 209.578125 170.347656 C 210.066406 169.949219 210.523438 169.507812 211.046875 169.164062 C 212.15625 168.433594 212.863281 168.535156 213.960938 169.445312 C 214.808594 170.148438 214.519531 170.929688 214.207031 171.753906 C 213.007812 174.910156 211.824219 178.070312 210.652344 181.238281 C 210.335938 182.082031 209.265625 182.566406 208.132812 182.328125 C 207.046875 182.097656 207.214844 181.277344 207.375 180.578125 C 207.695312 179.179688 208.117188 177.808594 208.496094 176.421875 C 208.566406 176.160156 208.628906 175.894531 208.75 175.394531 C 207.347656 176.53125 206.199219 177.582031 204.925781 178.457031 C 203.160156 179.675781 201.394531 180.941406 199.472656 181.875 C 195.410156 183.84375 192.445312 181.945312 192.367188 177.449219 C 192.3125 174.21875 193.226562 171.195312 194.601562 168.304688 C 196.671875 163.941406 199.394531 160.039062 203.421875 157.246094 C 204.714844 156.347656 206.332031 155.582031 207.871094 155.429688 C 210.785156 155.140625 212.417969 156.890625 211.710938 159.71875 C 210.847656 163.164062 209.027344 166.175781 206.351562 168.601562 C 205.570312 169.304688 204.625 169.867188 203.511719 169.371094 C 203.089844 169.179688 202.730469 168.742188 202.5 168.328125 C 202.445312 168.230469 203.003906 167.785156 203.289062 167.503906 C 203.367188 167.425781 203.46875 167.371094 203.546875 167.292969 C 205.710938 165.15625 207.15625 162.582031 208.222656 159.757812 " fill-opacity="1" fill-rule="nonzero"/><path fill="#000000" d="M 319.070312 160.964844 C 319.160156 160.757812 319.238281 160.105469 319.609375 159.800781 C 320.070312 159.425781 320.820312 159.097656 321.347656 159.207031 C 321.785156 159.292969 322.152344 160.015625 322.410156 160.523438 C 322.5625 160.8125 322.476562 161.246094 322.425781 161.601562 C 322.25 162.777344 321.414062 163.5 320.417969 163.382812 C 319.542969 163.273438 319.023438 162.480469 319.070312 160.964844 " fill-opacity="1" fill-rule="nonzero"/></svg>